<svg width="523" height="541" viewBox="0 0 523 541" fill="none" xmlns="http://www.w3.org/2000/svg">
<mask id="mask0_92_1593" style="mask-type:alpha" maskUnits="userSpaceOnUse" x="0" y="0" width="523" height="541">
<path d="M0.478516 262.464L114.243 0.54248H396.448L521.677 307.882H430.401L521.677 539.819H114.243L0.478516 262.464Z" fill="black"/>
<path fill-rule="evenodd" clip-rule="evenodd" d="M113.953 0.101562H396.745L522.333 308.323H431.048L522.324 540.26H113.947L0 262.459L113.953 0.101562ZM114.532 0.983454L0.957219 262.469L114.538 539.378H521.029L429.754 307.441H521.021L396.152 0.983454H114.532Z" fill="black"/>
<path d="M0.478516 262.464L114.243 0.54248H396.448L521.677 307.882H430.401L521.677 539.819H114.243L0.478516 262.464Z" fill="black"/>
<path fill-rule="evenodd" clip-rule="evenodd" d="M113.953 0.101562H396.745L522.333 308.323H431.048L522.324 540.26H113.947L0 262.459L113.953 0.101562ZM114.532 0.983454L0.957219 262.469L114.538 539.378H521.029L429.754 307.441H521.021L396.152 0.983454H114.532Z" fill="black"/>
<path d="M225.22 259.822L173.859 130.29L122.215 259.822L62.1056 259.822L151.847 47.0391L195.871 47.0391L285.33 259.822L225.22 259.822Z" fill="#F789C4"/>
<path d="M225.22 259.822L173.859 130.29L122.215 259.822L62.1056 259.822L151.847 47.0391L195.871 47.0391L285.33 259.822L225.22 259.822Z" fill="white"/>
<path d="M389.253 258.94L337.891 129.408L286.248 258.94L226.138 258.94L315.879 46.1573L359.903 46.1573L449.362 258.94L389.253 258.94Z" fill="#F789C4"/>
<path d="M389.253 258.94L337.891 129.408L286.248 258.94L226.138 258.94L315.879 46.1573L359.903 46.1573L449.362 258.94L389.253 258.94Z" fill="white"/>
<path d="M123.205 277.454L174.567 406.986L226.21 277.454H286.32L196.579 490.237H152.555L63.0957 277.454H123.205Z" fill="#3586FF"/>
<path d="M123.205 277.454L174.567 406.986L226.21 277.454H286.32L196.579 490.237H152.555L63.0957 277.454H123.205Z" fill="white"/>
<path d="M282.826 490.878L334.187 361.345L385.831 490.878H445.94L356.199 278.095H312.175L222.716 490.878H282.826Z" fill="#67D972"/>
<path d="M282.826 490.878L334.187 361.345L385.831 490.878H445.94L356.199 278.095H312.175L222.716 490.878H282.826Z" fill="white"/>
</mask>
<g mask="url(#mask0_92_1593)">
<rect x="-16" y="-18.8984" width="558.238" height="577.639" rx="35.2757" fill="url(#paint0_linear_92_1593)"/>
<path d="M225.498 260.224L174.136 130.691L122.493 260.224L62.383 260.224L152.124 47.4407L196.148 47.4407L285.607 260.224L225.498 260.224Z" fill="white"/>
<path d="M389.529 259.342L338.168 129.809L286.524 259.342L226.414 259.342L316.156 46.5588L360.18 46.5588L449.639 259.342L389.529 259.342Z" fill="white"/>
<path d="M123.483 277.856L174.844 407.388L226.488 277.856H286.598L196.856 490.639H152.832L63.373 277.856H123.483Z" fill="white"/>
<path d="M283.103 491.279L334.464 361.747L386.108 491.279H446.218L356.476 278.496H312.452L222.993 491.279H283.103Z" fill="white"/>
</g>
<defs>
<linearGradient id="paint0_linear_92_1593" x1="-16" y1="94.4247" x2="542.238" y2="492.599" gradientUnits="userSpaceOnUse">
<stop stop-color="#F789C4"/>
<stop offset="1" stop-color="#3586FF"/>
</linearGradient>
</defs>
</svg>
