<?xml version="1.0" encoding="UTF-8"?>
<svg width="144" height="137" version="1.1" viewBox="0 0 144 137" xmlns="http://www.w3.org/2000/svg"><g fill="#fff"><path d="m25.4 82.8 10.524-12.14h7.09v32.742h-8.159v-20.435l-8.846 10.266h-1.225l-8.844-10.266v20.438h-8.156v-32.742h7.082z"/><path d="m61.09 70.663v32.742h-8.156v-32.742z"/><path d="m70.99 70.663h14.438q8.367 0 13.23 4.582a15.542 15.542 0 0 1 4.863 11.847q0 7.617-4.933 11.965t-14.074 4.348h-13.524zm8.156 6v20.742h5.321q5.18 0 7.922-2.848a10.373 10.373 0 0 0 2.742-7.512 10.28 10.28 0 0 0-2.777-7.605q-2.778-2.778-7.981-2.777z"/><path d="m136.88 97.405v6h-24.961v-32.742h8.156v26.742z"/><path d="m57.608 52.438a7.832 7.832 0 1 1-7.832-7.832 7.831 7.831 0 0 1 7.832 7.832z"/></g><line x1="49.776" x2="91.265" y1="52.438" y2="34.552" fill="none" stroke="#fff" stroke-miterlimit="10" stroke-width="2"/><path d="m101.32 34.552a10.054 10.054 0 1 1-10.054-10.052 10.054 10.054 0 0 1 10.054 10.052z" fill="#fff"/><path d="m30.379 38.324a5.717 5.717 0 1 1-5.716-5.718 5.717 5.717 0 0 1 5.716 5.718z" fill="#fff"/><line x1="21.915" x2="50.265" y1="36.604" y2="52.552" fill="none" stroke="#fff" stroke-miterlimit="10" stroke-width="2"/><path d="m125.38 47.324a5.718 5.718 0 1 1-5.717-5.718 5.718 5.718 0 0 1 5.717 5.718z" fill="#fff"/><line x1="90.776" x2="119.66" y1="34.438" y2="47.324" fill="none" stroke="#fff" stroke-miterlimit="10" stroke-width="2"/><line x1="90.776" x2="110.38" y1="33.438" y2="10.042" fill="none" stroke="#fff" stroke-miterlimit="10" stroke-width="2"/><path d="m113.82 10.042a3.436 3.436 0 1 1-3.434-3.436 3.435 3.435 0 0 1 3.434 3.436z" fill="#fff"/><text transform="matrix(1.2887 0 0 1.2887 -5.479 -40.778)" fill="#ffffff" font-family="'IBM Plex Sans'" font-size="24px" font-weight="100" stroke="#ffffff" style="shape-inside:url(#rect442);shape-padding:0.769971;white-space:pre" xml:space="preserve"/><text fill="#ffffff" font-family="'Gill Sans MT'" font-size="26.667px" stroke="#ffffff" style="shape-inside:url(#rect1526);white-space:pre" xml:space="preserve"/><g transform="matrix(1.1777 0 0 1.1777 -1.0705 -22.563)" fill="#fff" stroke="#fff" stroke-width="0" style="shape-inside:url(#rect1532);shape-padding:0.0719548;white-space:pre" aria-label="Paris 2024"><path d="m7.8889 112.17h6.1992q2.1095 0 3.3533 1.2239 1.2438 1.2239 1.2438 2.8956 0 1.7314-1.2339 2.9653-1.2239 1.2339-3.3434 1.2339h-2.7563v5.5822h-3.4628zm3.4628 2.5473v3.224h1.612q2.1593 0 2.1593-1.612 0-0.90549-0.57713-1.2538-0.57713-0.35822-1.9702-0.35822z"/><path d="m31.486 123.75v1.6418q-1.4727 0.85575-2.7662 0.85575-1.3931 0-1.6518-1.0548-1.5423 1.0548-3.0946 1.0548-1.0946 0-1.8608-0.68659-0.76619-0.69653-0.76619-1.612 0-1.2239 0.78609-1.9702 0.79604-0.75624 4.7962-1.9404 0.09951-1.5722-1.6319-1.5722-1.8807 0-3.4628 1.5722v-2.408q1.8508-1.1443 4.0698-1.1443 3.9802 0 3.9802 2.8558v4.2787q0 0.65673 0.48758 0.65673 0.36817 0 1.1145-0.52737zm-4.5573 0.0398v-2.2687q-1.4826 0.51743-2.0399 0.93536-0.54728 0.40797-0.54728 1.0448 0 0.40797 0.27862 0.70649 0.27862 0.28857 0.67664 0.28857 0.83584 0 1.6319-0.70649z"/><path d="m37.461 116.68v2.6866h0.0398q1.2836-2.8757 2.9951-2.8757 0.81594 0 1.9603 0.85575l-0.81594 2.617q-1.0946-0.69654-1.7513-0.69654-1.0249 0-1.7314 1.2737-0.69654 1.2637-0.69654 1.4727v4.0598h-2.9553v-9.3933z"/><path d="m45.177 113.62q0-0.67664 0.47763-1.1543 0.47763-0.47763 1.1443-0.47763 0.67664 0 1.1543 0.47763 0.47763 0.47762 0.47763 1.1543 0 0.66668-0.47763 1.1543-0.47763 0.47763-1.1543 0.47763-0.66669 0-1.1443-0.47763-0.47763-0.48758-0.47763-1.1543zm3.1145 3.0548v9.3933h-2.9553v-9.3933z"/><path d="m58.973 117.19v2.0996q-1.6916-1.0348-3.1344-1.0348-1.0647 0-1.0647 0.72639 0 0.18906 0.21891 0.37812 0.22886 0.17911 1.7214 0.77614 1.4926 0.58708 2.1095 1.3632 0.61693 0.77615 0.61693 1.7016 0 1.4627-0.99505 2.2588-0.99505 0.79604-2.8359 0.79604-1.8906 0-3.3633-0.68659v-2.0797q1.811 0.79604 3.0349 0.79604 1.4329 0 1.4329-0.69653 0-0.26867-0.26866-0.50748-0.25871-0.23881-1.7712-0.8259-1.5125-0.58708-2.0697-1.2936-0.55723-0.70648-0.55723-1.5722 0-1.2836 1.0647-2.0896 1.0747-0.806 2.826-0.806 1.6816 0 3.0349 0.69654z"/><path d="m79.37 123.24v2.8359h-9.1843v-0.38807q1.2637-1.5423 2.8857-3.9006 1.6319-2.3682 2.0598-3.3633 0.42787-0.99506 0.42787-1.9304 0-0.81594-0.54728-1.403-0.53733-0.58708-1.3035-0.58708-1.5224 0-3.3434 1.7314v-2.9155q2.0399-1.3234 3.8907-1.3234 2.0498 0 3.224 1.0548 1.1841 1.0548 1.1841 2.8956 0 2.5175-3.7713 7.2938z"/><path d="m87.683 111.99q2.209 0 3.4429 1.9006 1.2438 1.9006 1.2438 5.1643 0 3.3931-1.204 5.2937-1.204 1.9006-3.4429 1.9006-2.2687 0-3.5324-1.8906-1.2538-1.8906-1.2538-5.234 0-3.3832 1.2737-5.2539 1.2836-1.8806 3.4727-1.8806zm0 11.652q0.83585 0 1.214-1.005 0.37812-1.015 0.37812-3.8011 0-2.3185-0.37812-3.2737-0.36817-0.9652-1.2339-0.9652-0.8458 0-1.2438 0.9453-0.38807 0.93535-0.38807 3.7215 0 2.3384 0.38807 3.3633 0.39802 1.015 1.2637 1.015z"/><path d="m105.29 123.24v2.8359h-9.1843v-0.38807q1.2637-1.5423 2.8857-3.9006 1.6319-2.3682 2.0598-3.3633 0.42788-0.99506 0.42788-1.9304 0-0.81594-0.54728-1.403-0.53733-0.58708-1.3035-0.58708-1.5224 0-3.3434 1.7314v-2.9155q2.0399-1.3234 3.8907-1.3234 2.0498 0 3.224 1.0548 1.1841 1.0548 1.1841 2.8956 0 2.5175-3.7712 7.2938z"/><path d="m117.29 111.99v8.4381h0.93535v2.219h-0.93535v3.423h-3.0747v-3.423h-5.423v-2.219l6.5375-8.4381zm-6.0499 8.4381h2.9752v-3.7912z"/></g><text x="18.292953" y="12.767953" fill="#ffffff" font-family="'Gill Sans MT'" font-size="26.667px" stroke="#aa0000" stroke-width="1.166" xml:space="preserve"><tspan x="18.292953" y="12.767953"/></text><text x="22.215567" y="14.144433" fill="#ffffff" font-family="'Gill Sans MT'" font-size="26.667px" stroke="#aa0000" stroke-width="1.166" xml:space="preserve"><tspan/></text></svg>
