<?xml version="1.0" encoding="UTF-8" standalone="no"?>
<svg
   viewBox="0 0 144 140"
   version="1.1"
   id="svg54"
   sodipodi:docname="logo_white.svg"
   width="144"
   height="140"
   inkscape:version="1.2.2 (b0a8486541, 2022-12-01)"
   inkscape:export-filename="logo.png"
   inkscape:export-xdpi="400"
   inkscape:export-ydpi="400"
   xmlns:inkscape="http://www.inkscape.org/namespaces/inkscape"
   xmlns:sodipodi="http://sodipodi.sourceforge.net/DTD/sodipodi-0.dtd"
   xmlns="http://www.w3.org/2000/svg"
   xmlns:svg="http://www.w3.org/2000/svg">
  <defs
     id="defs58">
    <rect
       x="6.1243774"
       y="108.16323"
       width="117.73911"
       height="31.575206"
       id="rect1532" />
    <rect
       x="9.5832748"
       y="109.14206"
       width="125.44712"
       height="28.486873"
       id="rect1526" />
    <rect
       x="8.5935955"
       y="111.35148"
       width="105.83487"
       height="30.05701"
       id="rect442" />
  </defs>
  <sodipodi:namedview
     id="namedview56"
     pagecolor="#aa0000"
     bordercolor="#000000"
     borderopacity="0.25"
     inkscape:showpageshadow="2"
     inkscape:pageopacity="0"
     inkscape:pagecheckerboard="0"
     inkscape:deskcolor="#d1d1d1"
     showgrid="false"
     inkscape:zoom="6.1538462"
     inkscape:cx="55.81875"
     inkscape:cy="58.3375"
     inkscape:window-width="3840"
     inkscape:window-height="2092"
     inkscape:window-x="0"
     inkscape:window-y="0"
     inkscape:window-maximized="1"
     inkscape:current-layer="svg54" />
  <path
     d="M 25.4,82.8 35.924,70.66 h 7.09 v 32.742 H 34.855 V 82.967 L 26.009,93.233 H 24.784 L 15.94,82.967 v 20.438 H 7.784 V 70.663 h 7.082 z"
     fill="#ffffff"
     id="path28" />
  <path
     d="m 61.09,70.663 v 32.742 H 52.934 V 70.663 Z"
     fill="#ffffff"
     id="path30" />
  <path
     d="m 70.99,70.663 h 14.438 q 8.367,0 13.23,4.582 a 15.542,15.542 0 0 1 4.863,11.847 q 0,7.617 -4.933,11.965 -4.933,4.348 -14.074,4.348 H 70.99 Z m 8.156,6 v 20.742 h 5.321 q 5.18,0 7.922,-2.848 a 10.373,10.373 0 0 0 2.742,-7.512 10.28,10.28 0 0 0 -2.777,-7.605 q -2.778,-2.778 -7.981,-2.777 z"
     fill="#ffffff"
     id="path32" />
  <path
     d="m 136.883,97.405 v 6 H 111.922 V 70.663 h 8.156 v 26.742 z"
     fill="#ffffff"
     id="path34" />
  <path
     d="m 57.608,52.438 a 7.832,7.832 0 1 1 -7.832,-7.832 7.831,7.831 0 0 1 7.832,7.832 z"
     fill="#ffffff"
     id="path36" />
  <line
     x1="49.776001"
     y1="52.438"
     x2="91.264999"
     y2="34.551998"
     fill="none"
     stroke="#ffffff"
     stroke-miterlimit="10"
     stroke-width="2"
     id="line38" />
  <path
     d="M 101.319,34.552 A 10.054,10.054 0 1 1 91.265,24.5 10.054,10.054 0 0 1 101.319,34.552 Z"
     fill="#ffffff"
     id="path40" />
  <path
     d="m 30.379,38.324 a 5.717,5.717 0 1 1 -5.716,-5.718 5.717,5.717 0 0 1 5.716,5.718 z"
     fill="#ffffff"
     id="path42" />
  <line
     x1="21.915001"
     y1="36.604"
     x2="50.264999"
     y2="52.551998"
     fill="none"
     stroke="#ffffff"
     stroke-miterlimit="10"
     stroke-width="2"
     id="line44" />
  <path
     d="m 125.38,47.324 a 5.718,5.718 0 1 1 -5.717,-5.718 5.718,5.718 0 0 1 5.717,5.718 z"
     fill="#ffffff"
     id="path46" />
  <line
     x1="90.776001"
     y1="34.438"
     x2="119.662"
     y2="47.324001"
     fill="none"
     stroke="#ffffff"
     stroke-miterlimit="10"
     stroke-width="2"
     id="line48" />
  <line
     x1="90.776001"
     y1="33.438"
     x2="110.381"
     y2="10.042"
     fill="none"
     stroke="#ffffff"
     stroke-miterlimit="10"
     stroke-width="2"
     id="line50" />
  <path
     d="m 113.816,10.042 a 3.436,3.436 0 1 1 -3.434,-3.436 3.435,3.435 0 0 1 3.434,3.436 z"
     fill="#ffffff"
     id="path52" />
  <text
     xml:space="preserve"
     id="text440"
     style="font-weight:100;font-size:24px;font-family:'IBM Plex Sans';-inkscape-font-specification:'IBM Plex Sans Thin';white-space:pre;shape-inside:url(#rect442);shape-padding:0.769971;display:inline;fill:#ffffff;stroke:#ffffff"
     transform="matrix(1.2887089,0,0,1.2887089,-5.4789855,-40.77846)" />
  <text
     xml:space="preserve"
     id="text1524"
     style="font-style:normal;font-variant:normal;font-weight:normal;font-stretch:normal;font-size:26.6667px;font-family:'Gill Sans MT';-inkscape-font-specification:'Gill Sans MT';white-space:pre;shape-inside:url(#rect1526);fill:#ffffff;stroke:#ffffff" />
  <text
     xml:space="preserve"
     id="text1530"
     style="font-style:normal;font-variant:normal;font-weight:normal;font-stretch:normal;font-size:26.6667px;font-family:'Gill Sans MT';-inkscape-font-specification:'Gill Sans MT';white-space:pre;shape-inside:url(#rect1532);fill:#ffffff;stroke:#ffffff"
     transform="matrix(1.1655716,0,0,1.1655716,-0.97592587,-21.004553)"><tspan
       x="6.125"
       y="131.50449"
       id="tspan1561">Paris 2024</tspan></text>
</svg>
