<?xml version="1.0" encoding="UTF-8"?>
<svg width="144" height="137" version="1.1" viewBox="0 0 144 137" xmlns="http://www.w3.org/2000/svg">
 <g fill="#fff">
  <path d="m25.4 82.8 10.524-12.14h7.09v32.742h-8.159v-20.435l-8.846 10.266h-1.225l-8.844-10.266v20.438h-8.156v-32.742h7.082z"/>
  <path d="m61.09 70.663v32.742h-8.156v-32.742z"/>
  <path d="m70.99 70.663h14.438q8.367 0 13.23 4.582a15.542 15.542 0 0 1 4.863 11.847q0 7.617-4.933 11.965t-14.074 4.348h-13.524zm8.156 6v20.742h5.321q5.18 0 7.922-2.848a10.373 10.373 0 0 0 2.742-7.512 10.28 10.28 0 0 0-2.777-7.605q-2.778-2.778-7.981-2.777z"/>
  <path d="m136.88 97.405v6h-24.961v-32.742h8.156v26.742z"/>
  <path d="m57.608 52.438a7.832 7.832 0 1 1-7.832-7.832 7.831 7.831 0 0 1 7.832 7.832z"/>
 </g>
 <line x1="49.776" x2="91.265" y1="52.438" y2="34.552" fill="none" stroke="#fff" stroke-miterlimit="10" stroke-width="2"/>
 <path d="m101.32 34.552a10.054 10.054 0 1 1-10.054-10.052 10.054 10.054 0 0 1 10.054 10.052z" fill="#fff"/>
 <path d="m30.379 38.324a5.717 5.717 0 1 1-5.716-5.718 5.717 5.717 0 0 1 5.716 5.718z" fill="#fff"/>
 <line x1="21.915" x2="50.265" y1="36.604" y2="52.552" fill="none" stroke="#fff" stroke-miterlimit="10" stroke-width="2"/>
 <path d="m125.38 47.324a5.718 5.718 0 1 1-5.717-5.718 5.718 5.718 0 0 1 5.717 5.718z" fill="#fff"/>
 <line x1="90.776" x2="119.66" y1="34.438" y2="47.324" fill="none" stroke="#fff" stroke-miterlimit="10" stroke-width="2"/>
 <line x1="90.776" x2="110.38" y1="33.438" y2="10.042" fill="none" stroke="#fff" stroke-miterlimit="10" stroke-width="2"/>
 <path d="m113.82 10.042a3.436 3.436 0 1 1-3.434-3.436 3.435 3.435 0 0 1 3.434 3.436z" fill="#fff"/>
 <text transform="matrix(1.2887 0 0 1.2887 -5.479 -40.778)" fill="#ffffff" font-family="'IBM Plex Sans'" font-size="24px" font-weight="100" stroke="#ffffff" style="shape-inside:url(#rect442);shape-padding:0.769971;white-space:pre" xml:space="preserve"/>
 <text fill="#ffffff" font-family="'Gill Sans MT'" font-size="26.667px" stroke="#ffffff" style="shape-inside:url(#rect1526);white-space:pre" xml:space="preserve"/>
 <g transform="matrix(1.1656 0 0 1.1656 -.97593 -21.005)" fill="#fff" stroke="#fff" style="shape-inside:url(#rect1532);shape-padding:0.0719548;white-space:pre" aria-label="Paris 2024">
  <path d="m7.7947 128.26v-15.628h4.9488q2.2342 0 3.5636 1.2065 1.3294 1.2065 1.3294 3.2396 0 1.3629-0.68144 2.413-0.68144 1.0501-1.8656 1.5304-1.1841 0.46919-3.396 0.46919h-1.6533v6.7697zm4.5578-13.64h-2.3124v4.8818h2.4465q1.3629 0 2.1002-0.63676 0.7373-0.64793 0.7373-1.8432 0-2.4018-2.9715-2.4018z"/>
  <path d="m27.474 122.08v4.3679q0 0.52505 0.35748 0.52505 0.36865 0 1.1506-0.54739v1.24q-0.69261 0.44685-1.1171 0.60325-0.41333 0.16756-0.87135 0.16756-1.307 0-1.5416-1.0278-1.2959 1.0054-2.7593 1.0054-1.0724 0-1.7874-0.70378-0.71496-0.71496-0.71496-1.7874 0-0.9719 0.69261-1.7315 0.70378-0.77081 1.9885-1.2177l2.6029-0.89369v-0.54739q0-1.8544-1.8544-1.8544-1.6645 0-3.2396 1.7204v-2.2231q1.1841-1.3964 3.4072-1.3964 1.6645 0 2.6699 0.87135 0.33514 0.27928 0.60324 0.74847 0.26811 0.45802 0.33514 0.92721 0.0782 0.45802 0.0782 1.7539zm-1.9996 4.1445v-3.0497l-1.3629 0.52505q-1.0389 0.41333-1.4746 0.83784-0.4245 0.41333-0.4245 1.0389 0 0.63676 0.40216 1.0389 0.41333 0.40216 1.0613 0.40216 0.97189 0 1.7986-0.79315z"/>
  <path d="m34.675 117.98v2.3571l0.11171-0.17874q1.4746-2.3795 2.9492-2.3795 1.1506 0 2.4018 1.1618l-1.0724 1.7874q-1.0613-1.0054-1.9661-1.0054-0.98306 0-1.7092 0.93838-0.71496 0.93838-0.71496 2.2231v5.3733h-2.0443v-10.277z"/>
  <path d="m44.322 113.66q0.5027 0 0.86018 0.3463 0.35748 0.34631 0.35748 0.84902 0 0.49153-0.35748 0.84901-0.35748 0.35747-0.86018 0.35747-0.46919 0-0.82667-0.35747-0.35748-0.36865-0.35748-0.84901 0-0.46919 0.35748-0.82667 0.35748-0.36865 0.82667-0.36865zm-1.0054 4.3232h2.0332v10.277h-2.0332z"/>
  <path d="m49.501 127.52v-2.1896q0.86018 0.60325 1.7539 0.98307 0.90487 0.36865 1.5193 0.36865 0.63676 0 1.0948-0.3128 0.45802-0.31279 0.45802-0.74847 0-0.44684-0.30162-0.7373-0.29045-0.30162-1.2735-0.86018-1.9661-1.0948-2.5805-1.8656-0.60324-0.78198-0.60324-1.698 0-1.1841 0.91604-1.9326 0.92721-0.74847 2.3795-0.74847 1.5081 0 3.0944 0.84901v2.0108q-1.8097-1.0948-2.9604-1.0948-0.59207 0-0.96072 0.25693-0.35748 0.24577-0.35748 0.6591 0 0.35748 0.32396 0.68145 0.33514 0.32396 1.1618 0.78198l0.72613 0.41333q2.5694 1.4523 2.5694 3.2173 0 1.2623-0.99424 2.0778-0.98306 0.80432-2.5359 0.80432-0.91604 0-1.631-0.18991-0.71496-0.20108-1.7986-0.72612z"/>
  <path d="m71.868 126.1h5.9431v2.156h-9.8753v-0.15639l0.93838-1.106q2.2007-2.7258 3.4966-4.6249 1.307-1.8991 1.698-2.871 0.40216-0.97189 0.40216-1.9214 0-1.3182-0.74847-2.1114-0.74847-0.80432-1.9885-0.80432-0.93838 0-1.8544 0.55855-0.90487 0.54739-1.631 1.5528v-2.8375q1.8209-1.4858 3.7535-1.4858 2.0443 0 3.3625 1.3629 1.3294 1.3629 1.3294 3.4631 0 0.93838-0.33514 2.0108-0.32396 1.0613-1.1618 2.4577-0.83784 1.3852-2.8487 3.787z"/>
  <path d="m86.118 112.45q2.1449 0 3.5413 2.2566 1.4076 2.2454 1.4076 5.7085 0 3.5524-1.4076 5.7755-1.3964 2.2231-3.6306 2.2231-2.2678 0-3.6418-2.1784-1.3741-2.1784-1.3741-5.7755 0-3.5524 1.4187-5.7755 1.4187-2.2342 3.6865-2.2342zm0.02234 2.1225h-0.11171q-1.2847 0-2.0443 1.5863-0.74847 1.5751-0.74847 4.2786 0 2.7705 0.7373 4.3456 0.7373 1.5751 2.0332 1.5751t2.0443-1.5751q0.74847-1.5751 0.74847-4.2786 0-2.7146-0.72613-4.3232-0.71496-1.6086-1.9326-1.6086z"/>
  <path d="m98.179 126.1h5.9431v2.156h-9.8753v-0.15639l0.93838-1.106q2.2007-2.7258 3.4966-4.6249 1.307-1.8991 1.698-2.871 0.40217-0.97189 0.40217-1.9214 0-1.3182-0.74847-2.1114-0.74847-0.80432-1.9885-0.80432-0.93838 0-1.8544 0.55855-0.90487 0.54739-1.631 1.5528v-2.8375q1.8209-1.4858 3.7535-1.4858 2.0443 0 3.3625 1.3629 1.3294 1.3629 1.3294 3.4631 0 0.93838-0.33513 2.0108-0.32397 1.0613-1.1618 2.4577-0.83784 1.3852-2.8486 3.787z"/>
  <path d="m114.74 112.45h0.91604v8.7582h1.7427v1.8991h-1.7427v5.1499h-2.1784v-5.1499h-6.6022v-0.96073zm-1.2624 8.7582v-4.5243l-3.6083 4.5243z"/>
 </g>
</svg>
