<?xml version="1.0" encoding="UTF-8" standalone="no"?>
<!DOCTYPE svg PUBLIC "-//W3C//DTD SVG 1.1//EN" "http://www.w3.org/Graphics/SVG/1.1/DTD/svg11.dtd">
<svg width="100%" height="100%" viewBox="0 0 332 163" version="1.1" xmlns="http://www.w3.org/2000/svg" xmlns:xlink="http://www.w3.org/1999/xlink" xml:space="preserve" xmlns:serif="http://www.serif.com/" style="fill-rule:evenodd;clip-rule:evenodd;stroke-linejoin:round;stroke-miterlimit:1.41421;"><g><path d="M40.374,65.623l4.744,0l0,-10.402c0,-1.312 -1.061,-2.374 -2.371,-2.374c-1.309,0 -2.373,1.062 -2.373,2.374l0,10.402Z" style="fill:#102970;fill-rule:nonzero;"/><path d="M30.384,65.623l4.744,0l0,-10.402c0,-1.312 -1.061,-2.374 -2.373,-2.374c-1.309,0 -2.371,1.062 -2.371,2.374l0,10.402Z" style="fill:#102970;fill-rule:nonzero;"/><path d="M50.364,65.623l4.744,0l0,-10.402c0,-1.312 -1.062,-2.374 -2.371,-2.374c-1.31,0 -2.373,1.062 -2.373,2.374l0,10.402Z" style="fill:#102970;fill-rule:nonzero;"/><path d="M43.932,27.315c3.157,0.559 4.344,3.335 4.344,5.271l0,4.039l2.892,0l0,2.292c7.563,3.554 12.928,11.48 12.928,19.608c0,0.052 -0.001,0.103 -0.001,0.155l0,6.967l17.494,0l0,-7.122c-0.371,-22.954 -16.708,-36.969 -38.278,-37.251l0.621,6.041Z" style="fill:#102970;fill-rule:nonzero;"/><path d="M40.624,32.456l0,4.168l4.259,0l0,-4.168c0,-1.175 -0.953,-2.13 -2.129,-2.13c-1.179,0 -2.13,0.955 -2.13,2.13Z" style="fill:#102970;fill-rule:nonzero;"/><path d="M45.961,76.832c-18.056,-4.613 -24.805,-8.549 -24.805,-19.993c0,-8.215 5.48,-15.28 13.167,-18.303l0,-1.911l2.908,0l0,-4.041c0,-1.96 1.218,-4.782 4.47,-5.289l0.589,-6.027c-21.741,0.167 -40.242,15.268 -39.354,35.571c0.992,22.721 25.902,29.09 39.326,31.943c10.561,2.241 35.973,8.19 42.269,26.089c0,0 2.357,-29.619 -38.57,-38.039Z" style="fill:#102970;fill-rule:nonzero;"/><path d="M39.958,108.377c18.207,5.551 22.869,12.302 22.869,21.89c0,14.621 -11.323,20.625 -25.534,20.625c-13.608,0 -25.308,-6.345 -33.088,-14.569c-0.04,-0.042 -2.9,6.003 -2.9,6.003c5.726,10.821 21.82,20.672 39.78,20.672l0.021,0c0.008,0.002 0.015,0.002 0.024,0.002l0,-0.002c23.005,0.193 42.568,-10.577 42.568,-32.271c0,-23.287 -25.378,-32.401 -39.465,-35.53c-11.08,-2.466 -39.045,-9.826 -44.019,-25.453c0,0 -5.548,27.088 39.744,38.633Z" style="fill:#102970;fill-rule:nonzero;"/><path d="M113.39,145.344c0,0 -0.288,1.26 -0.54,1.98l-1.135,3.421l3.349,0l-1.134,-3.421c-0.234,-0.72 -0.504,-1.98 -0.504,-1.98l-0.036,0Zm2.251,7.292l-4.484,0l-1.08,3.277l-2.395,0l4.502,-12.784l2.43,0l4.501,12.784l-2.394,0l-1.08,-3.277Z" style="fill:#ef3f36;fill-rule:nonzero;"/><path d="M125.126,149.125c1.242,0 2.017,-0.738 2.017,-2.017c0,-1.224 -0.523,-1.98 -2.341,-1.98l-1.765,0l0,3.997l2.089,0Zm-4.412,-5.996l4.124,0c1.386,0 2.016,0.108 2.574,0.36c1.278,0.576 2.089,1.801 2.089,3.493c0,1.531 -0.811,2.953 -2.161,3.493l0,0.037c0,0 0.181,0.179 0.432,0.629l2.629,4.772l-2.592,0l-2.539,-4.772l-2.233,0l0,4.772l-2.323,0l0,-12.784Z" style="fill:#ef3f36;fill-rule:nonzero;"/><path d="M135.169,145.128l-4.195,0l0,-1.999l10.713,0l0,1.999l-4.196,0l0,10.785l-2.322,0l0,-10.785Z" style="fill:#ef3f36;fill-rule:nonzero;"/><rect x="143.34" y="143.129" width="2.323" height="12.784" style="fill:#ef3f36;fill-rule:nonzero;"/><path d="M148.865,143.129l7.347,0l0,1.999l-5.024,0l0,3.619l4.232,0l0,1.998l-4.232,0l0,5.168l-2.323,0l0,-12.784Z" style="fill:#ef3f36;fill-rule:nonzero;"/><rect x="158.352" y="143.129" width="2.323" height="12.784" style="fill:#ef3f36;fill-rule:nonzero;"/><path d="M169.567,142.913c3.115,0 4.717,1.747 4.717,1.747l-1.116,1.729c0,0 -1.458,-1.351 -3.493,-1.351c-2.7,0 -4.285,2.017 -4.285,4.393c0,2.431 1.638,4.574 4.303,4.574c2.215,0 3.709,-1.621 3.709,-1.621l1.225,1.674c0,0 -1.765,2.071 -5.023,2.071c-3.908,0 -6.609,-2.899 -6.609,-6.662c0,-3.709 2.809,-6.554 6.572,-6.554Z" style="fill:#ef3f36;fill-rule:nonzero;"/><rect x="176.729" y="143.129" width="2.324" height="12.784" style="fill:#ef3f36;fill-rule:nonzero;"/><path d="M186.36,145.344c0,0 -0.288,1.26 -0.54,1.98l-1.134,3.421l3.349,0l-1.135,-3.421c-0.233,-0.72 -0.504,-1.98 -0.504,-1.98l-0.036,0Zm2.251,7.292l-4.483,0l-1.08,3.277l-2.396,0l4.502,-12.784l2.431,0l4.501,12.784l-2.395,0l-1.08,-3.277Z" style="fill:#ef3f36;fill-rule:nonzero;"/><path d="M193.685,143.129l2.323,0l0,10.785l5.527,0l0,1.999l-7.85,0l0,-12.784Z" style="fill:#ef3f36;fill-rule:nonzero;"/><rect x="207.688" y="143.129" width="2.324" height="12.784" style="fill:#ef3f36;fill-rule:nonzero;"/><path d="M213.214,143.129l2.323,0l4.844,7.383c0.485,0.738 1.061,1.98 1.061,1.98l0.037,0c0,0 -0.126,-1.225 -0.126,-1.98l0,-7.383l2.304,0l0,12.784l-2.304,0l-4.844,-7.364c-0.486,-0.739 -1.062,-1.981 -1.062,-1.981l-0.036,0c0,0 0.126,1.225 0.126,1.981l0,7.364l-2.323,0l0,-12.784Z" style="fill:#ef3f36;fill-rule:nonzero;"/><path d="M229.506,145.128l-4.195,0l0,-1.999l10.712,0l0,1.999l-4.195,0l0,10.785l-2.322,0l0,-10.785Z" style="fill:#ef3f36;fill-rule:nonzero;"/><path d="M237.676,143.129l7.652,0l0,1.999l-5.329,0l0,3.348l4.303,0l0,1.999l-4.303,0l0,3.439l5.617,0l0,1.999l-7.94,0l0,-12.784Z" style="fill:#ef3f36;fill-rule:nonzero;"/><path d="M247.99,143.129l2.323,0l0,10.785l5.528,0l0,1.999l-7.851,0l0,-12.784Z" style="fill:#ef3f36;fill-rule:nonzero;"/><path d="M257.656,143.129l2.323,0l0,10.785l5.528,0l0,1.999l-7.851,0l0,-12.784Z" style="fill:#ef3f36;fill-rule:nonzero;"/><rect x="267.321" y="143.129" width="2.324" height="12.784" style="fill:#ef3f36;fill-rule:nonzero;"/><path d="M278.574,142.913c3.133,0 4.753,1.621 4.753,1.621l-1.152,1.729c0,0 -1.368,-1.225 -3.404,-1.225c-2.862,0 -4.392,1.98 -4.392,4.393c0,2.773 1.891,4.574 4.285,4.574c1.926,0 3.205,-1.333 3.205,-1.333l0,-1.494l-1.963,0l0,-1.999l4.051,0l0,6.734l-1.98,0l0,-0.612c0,-0.27 0.018,-0.54 0.018,-0.54l-0.036,0c0,0 -1.333,1.368 -3.709,1.368c-3.367,0 -6.267,-2.611 -6.267,-6.626c0,-3.709 2.791,-6.59 6.591,-6.59Z" style="fill:#ef3f36;fill-rule:nonzero;"/><path d="M286.491,143.129l7.653,0l0,1.999l-5.33,0l0,3.348l4.303,0l0,1.999l-4.303,0l0,3.439l5.618,0l0,1.999l-7.941,0l0,-12.784Z" style="fill:#ef3f36;fill-rule:nonzero;"/><path d="M296.806,143.129l2.323,0l4.844,7.383c0.485,0.738 1.061,1.98 1.061,1.98l0.036,0c0,0 -0.126,-1.225 -0.126,-1.98l0,-7.383l2.305,0l0,12.784l-2.305,0l-4.843,-7.364c-0.486,-0.739 -1.062,-1.981 -1.062,-1.981l-0.036,0c0,0 0.126,1.225 0.126,1.981l0,7.364l-2.323,0l0,-12.784Z" style="fill:#ef3f36;fill-rule:nonzero;"/><path d="M316.14,142.913c3.114,0 4.716,1.747 4.716,1.747l-1.116,1.729c0,0 -1.458,-1.351 -3.493,-1.351c-2.7,0 -4.285,2.017 -4.285,4.393c0,2.431 1.639,4.574 4.304,4.574c2.214,0 3.709,-1.621 3.709,-1.621l1.224,1.674c0,0 -1.764,2.071 -5.023,2.071c-3.907,0 -6.609,-2.899 -6.609,-6.662c0,-3.709 2.809,-6.554 6.573,-6.554Z" style="fill:#ef3f36;fill-rule:nonzero;"/><path d="M323.301,143.129l7.652,0l0,1.999l-5.329,0l0,3.348l4.303,0l0,1.999l-4.303,0l0,3.439l5.617,0l0,1.999l-7.94,0l0,-12.784Z" style="fill:#ef3f36;fill-rule:nonzero;"/><path d="M109.572,131.376c0,0 1.387,1.35 3.188,1.35c0.971,0 1.854,-0.503 1.854,-1.547c0,-2.288 -6.032,-1.89 -6.032,-5.817c0,-2.124 1.837,-3.709 4.285,-3.709c2.522,0 3.818,1.368 3.818,1.368l-1.008,1.891c0,0 -1.225,-1.116 -2.827,-1.116c-1.08,0 -1.927,0.631 -1.927,1.53c0,2.269 6.014,1.711 6.014,5.799c0,2.034 -1.548,3.744 -4.213,3.744c-2.845,0 -4.411,-1.746 -4.411,-1.746l1.259,-1.747Z" style="fill:#ef3f36;fill-rule:nonzero;"/><path d="M124.945,132.745c2.341,0 4.214,-1.945 4.214,-4.574c0,-2.521 -1.873,-4.393 -4.214,-4.393c-2.34,0 -4.213,1.872 -4.213,4.393c0,2.629 1.873,4.574 4.213,4.574Zm0,-11.092c3.764,0 6.609,2.863 6.609,6.518c0,3.763 -2.845,6.698 -6.609,6.698c-3.762,0 -6.607,-2.935 -6.607,-6.698c0,-3.655 2.845,-6.518 6.607,-6.518Z" style="fill:#ef3f36;fill-rule:nonzero;"/><path d="M138.284,127.865c1.242,0 2.017,-0.738 2.017,-2.017c0,-1.224 -0.523,-1.98 -2.341,-1.98l-1.765,0l0,3.997l2.089,0Zm-4.412,-5.996l4.124,0c1.386,0 2.017,0.108 2.574,0.36c1.279,0.577 2.089,1.801 2.089,3.494c0,1.53 -0.81,2.953 -2.161,3.493l0,0.036c0,0 0.181,0.179 0.433,0.63l2.629,4.771l-2.593,0l-2.539,-4.771l-2.233,0l0,4.771l-2.323,0l0,-12.784Z" style="fill:#ef3f36;fill-rule:nonzero;"/><path d="M150.487,132.654c1.189,0 1.855,-0.773 1.855,-1.854c0,-1.062 -0.684,-1.836 -1.855,-1.836l-2.484,0l0,3.69l2.484,0Zm-0.233,-5.563c1.008,0 1.584,-0.72 1.584,-1.639c0,-0.918 -0.54,-1.584 -1.62,-1.584l-2.215,0l0,3.223l2.251,0Zm-4.574,-5.222l4.574,0c2.305,0 3.942,1.188 3.942,3.295c0,1.188 -0.576,2.215 -1.548,2.737l0,0.036c1.405,0.414 2.071,1.71 2.071,3.007c0,2.557 -2.053,3.709 -4.411,3.709l-4.628,0l0,-12.784Z" style="fill:#ef3f36;fill-rule:nonzero;"/><path d="M162.926,132.745c2.34,0 4.213,-1.945 4.213,-4.574c0,-2.521 -1.873,-4.393 -4.213,-4.393c-2.341,0 -4.214,1.872 -4.214,4.393c0,2.629 1.873,4.574 4.214,4.574Zm0,-11.092c3.762,0 6.607,2.863 6.607,6.518c0,3.763 -2.845,6.698 -6.607,6.698c-3.764,0 -6.609,-2.935 -6.609,-6.698c0,-3.655 2.845,-6.518 6.609,-6.518Z" style="fill:#ef3f36;fill-rule:nonzero;"/><path d="M171.852,121.869l2.323,0l4.843,7.383c0.486,0.738 1.062,1.981 1.062,1.981l0.036,0c0,0 -0.126,-1.224 -0.126,-1.981l0,-7.383l2.305,0l0,12.784l-2.305,0l-4.844,-7.364c-0.485,-0.738 -1.061,-1.981 -1.061,-1.981l-0.036,0c0,0 0.126,1.225 0.126,1.981l0,7.364l-2.323,0l0,-12.784Z" style="fill:#ef3f36;fill-rule:nonzero;"/><path d="M185.495,121.869l2.323,0l4.844,7.383c0.485,0.738 1.062,1.981 1.062,1.981l0.036,0c0,0 -0.126,-1.224 -0.126,-1.981l0,-7.383l2.304,0l0,12.784l-2.304,0l-4.844,-7.364c-0.485,-0.738 -1.061,-1.981 -1.061,-1.981l-0.037,0c0,0 0.126,1.225 0.126,1.981l0,7.364l-2.323,0l0,-12.784Z" style="fill:#ef3f36;fill-rule:nonzero;"/><path d="M199.14,121.869l7.652,0l0,1.999l-5.329,0l0,3.349l4.303,0l0,1.999l-4.303,0l0,3.438l5.617,0l0,1.999l-7.94,0l0,-12.784Z" style="fill:#ef3f36;fill-rule:nonzero;"/><path d="M219.481,121.653c3.115,0 4.717,1.747 4.717,1.747l-1.116,1.729c0,0 -1.458,-1.351 -3.493,-1.351c-2.7,0 -4.285,2.017 -4.285,4.393c0,2.431 1.638,4.574 4.303,4.574c2.215,0 3.709,-1.62 3.709,-1.62l1.225,1.674c0,0 -1.765,2.07 -5.023,2.07c-3.908,0 -6.609,-2.897 -6.609,-6.662c0,-3.709 2.809,-6.554 6.572,-6.554Z" style="fill:#ef3f36;fill-rule:nonzero;"/><path d="M226.643,121.869l7.652,0l0,1.999l-5.329,0l0,3.349l4.303,0l0,1.999l-4.303,0l0,3.438l5.617,0l0,1.999l-7.94,0l0,-12.784Z" style="fill:#ef3f36;fill-rule:nonzero;"/><path d="M236.957,121.869l2.323,0l4.843,7.383c0.486,0.738 1.063,1.981 1.063,1.981l0.036,0c0,0 -0.126,-1.224 -0.126,-1.981l0,-7.383l2.304,0l0,12.784l-2.304,0l-4.844,-7.364c-0.485,-0.738 -1.062,-1.981 -1.062,-1.981l-0.036,0c0,0 0.126,1.225 0.126,1.981l0,7.364l-2.323,0l0,-12.784Z" style="fill:#ef3f36;fill-rule:nonzero;"/><path d="M253.248,123.868l-4.195,0l0,-1.999l10.712,0l0,1.999l-4.195,0l0,10.785l-2.322,0l0,-10.785Z" style="fill:#ef3f36;fill-rule:nonzero;"/><path d="M261.419,121.869l7.652,0l0,1.999l-5.329,0l0,3.349l4.303,0l0,1.999l-4.303,0l0,3.438l5.617,0l0,1.999l-7.94,0l0,-12.784Z" style="fill:#ef3f36;fill-rule:nonzero;"/><path d="M276.145,127.865c1.242,0 2.016,-0.738 2.016,-2.017c0,-1.224 -0.522,-1.98 -2.341,-1.98l-1.764,0l0,3.997l2.089,0Zm-4.413,-5.996l4.124,0c1.386,0 2.017,0.108 2.575,0.36c1.278,0.577 2.089,1.801 2.089,3.494c0,1.53 -0.811,2.953 -2.162,3.493l0,0.036c0,0 0.181,0.179 0.433,0.63l2.629,4.771l-2.593,0l-2.539,-4.771l-2.232,0l0,4.771l-2.324,0l0,-12.784Z" style="fill:#ef3f36;fill-rule:nonzero;"/><path d="M287.879,121.869l7.347,0l0,1.999l-5.024,0l0,3.619l4.232,0l0,1.998l-4.232,0l0,5.168l-2.323,0l0,-12.784Z" style="fill:#ef3f36;fill-rule:nonzero;"/><path d="M303.09,132.745c2.341,0 4.214,-1.945 4.214,-4.574c0,-2.521 -1.873,-4.393 -4.214,-4.393c-2.34,0 -4.213,1.872 -4.213,4.393c0,2.629 1.873,4.574 4.213,4.574Zm0,-11.092c3.764,0 6.608,2.863 6.608,6.518c0,3.763 -2.844,6.698 -6.608,6.698c-3.763,0 -6.608,-2.935 -6.608,-6.698c0,-3.655 2.845,-6.518 6.608,-6.518Z" style="fill:#ef3f36;fill-rule:nonzero;"/><path d="M316.429,127.865c1.242,0 2.016,-0.738 2.016,-2.017c0,-1.224 -0.522,-1.98 -2.341,-1.98l-1.764,0l0,3.997l2.089,0Zm-4.412,-5.996l4.124,0c1.385,0 2.016,0.108 2.574,0.36c1.278,0.577 2.089,1.801 2.089,3.494c0,1.53 -0.811,2.953 -2.161,3.493l0,0.036c0,0 0.18,0.179 0.432,0.63l2.629,4.771l-2.593,0l-2.539,-4.771l-2.232,0l0,4.771l-2.323,0l0,-12.784Z" style="fill:#ef3f36;fill-rule:nonzero;"/><path d="M115.139,74.472c0,0 7.838,7.149 18.011,7.149c3.576,0 7.013,-0.963 7.013,-3.299c0,-6.188 -33.137,-6.875 -33.137,-29.975c0,-13.337 12.787,-21.587 29.15,-21.587c16.5,0 24.887,8.112 24.887,8.112l-8.113,16.912c0,0 -6.875,-5.774 -16.774,-5.774c-3.575,0 -7.014,0.962 -7.014,3.438c0,5.362 33.138,6.186 33.138,29.011c0,12.1 -10.725,22.412 -29.012,22.412c-17.737,0 -28.324,-10.45 -28.324,-10.45l10.175,-15.949Z" style="fill:#102970;fill-rule:nonzero;"/><path d="M202.587,26.76c19.25,0 28.187,10.725 28.187,10.725l-10.037,15.95c0,0 -6.875,-6.875 -16.637,-6.875c-11.275,0 -16.912,8.524 -16.912,16.912c0,8.387 5.775,17.6 17.737,17.6c9.899,0 19.387,-8.526 19.387,-8.526l8.663,16.638c0,0 -10.588,11.687 -30.388,11.687c-25.299,0 -39.461,-17.599 -39.461,-37.125c0,-18.974 14.024,-36.986 39.461,-36.986Z" style="fill:#102970;fill-rule:nonzero;"/><path d="M265.287,82.721c6.187,0 11.687,-6.737 11.687,-12.512l0,-1.512l-2.2,0c-7.562,0 -16.225,2.2 -16.225,8.112c0,3.3 2.063,5.912 6.738,5.912Zm10.449,-27.637l0.963,0l0,-1.237c0,-5.912 -4.538,-7.837 -10.45,-7.837c-8.937,0 -19.112,6.737 -19.112,6.737l-8.249,-16.775c0,0 12.237,-9.212 29.699,-9.212c19.936,0 31.899,10.862 31.899,28.874l0,43.587l-21.724,0l0,-4.263c0,-2.337 0.274,-4.399 0.274,-4.399l-0.274,0c0,0 -5.226,10.312 -20.075,10.312c-13.2,0 -24.062,-8.799 -24.062,-22.825c0,-20.624 30.111,-22.962 41.111,-22.962Z" style="fill:#102970;fill-rule:nonzero;"/><path d="M307.638,0.91l23.236,0l0,18.563l-23.236,0l0,-18.563Zm-0.276,27.5l23.787,0l0,70.811l-23.787,0l0,-70.811Z" style="fill:#102970;fill-rule:nonzero;"/></g></svg>